{"accessors":[{"bufferView":2,"componentType":5126,"count":207,"max":[0.2860604524612427,13.072827339172363,4.884276866912842],"min":[-0.28606051206588745,12.125367164611816,4.312155723571777],"type":"VEC3"},{"bufferView":2,"byteOffset":2484,"componentType":5126,"count":207,"max":[1,1,1],"min":[-1,-1,-1],"type":"VEC3"},{"bufferView":1,"componentType":5126,"count":207,"max":[0.65625,1],"min":[0.3437499701976776,-7.450580596923828e-8],"type":"VEC2"},{"bufferView":0,"componentType":5125,"count":960,"type":"SCALAR"},{"bufferView":2,"byteOffset":4968,"componentType":5126,"count":4165,"max":[0.4361380338668823,12.624723434448242,5.221360206604004],"min":[-0.4361380338668823,8.596172332763672,4.1498236656188965],"type":"VEC3"},{"bufferView":2,"byteOffset":54948,"componentType":5126,"count":4165,"max":[1,1,0.9999971985816956],"min":[-1,-1,-1],"type":"VEC3"},{"bufferView":1,"byteOffset":1656,"componentType":5126,"count":4165,"max":[0.875,1],"min":[0.125,0],"type":"VEC2"},{"bufferView":0,"byteOffset":3840,"componentType":5125,"count":24432,"type":"SCALAR"},{"bufferView":2,"byteOffset":104928,"componentType":5126,"count":7232,"max":[0.16641253232955933,1.4828672409057617,4.751129627227783],"min":[-0.15365618467330933,1.0677037239074707,4.431692123413086],"type":"VEC3"},{"bufferView":2,"byteOffset":191712,"componentType":5126,"count":7232,"max":[0.9462100267410278,0.8929476737976074,1],"min":[-0.9462101459503174,-0.8929475545883179,-1],"type":"VEC3"},{"bufferView":1,"byteOffset":34976,"componentType":5126,"count":7232,"max":[0.65625,1],"min":[0.34375,1.4901161193847656e-8],"type":"VEC2"},{"bufferView":0,"byteOffset":101568,"componentType":5125,"count":21636,"type":"SCALAR"},{"bufferView":2,"byteOffset":278496,"componentType":5126,"count":416,"max":[0.46909528970718384,2.727853536605835,5.078449249267578],"min":[-0.4690954089164734,0.9826358556747437,4.1402587890625],"type":"VEC3"},{"bufferView":2,"byteOffset":283488,"componentType":5126,"count":416,"max":[1,1,1],"min":[-1,-0.940625011920929,-1],"type":"VEC3"},{"bufferView":1,"byteOffset":92832,"componentType":5126,"count":416,"max":[0.65625,1],"min":[0.3437499701976776,0.3125],"type":"VEC2"},{"bufferView":0,"byteOffset":188112,"componentType":5125,"count":1800,"type":"SCALAR"},{"bufferView":2,"byteOffset":288480,"componentType":5126,"count":4270,"max":[0.5532971620559692,5.709139823913574,5.143665790557861],"min":[-0.5450752973556519,2.729978322982788,4.045292854309082],"type":"VEC3"},{"bufferView":2,"byteOffset":339720,"componentType":5126,"count":4270,"max":[1,1,1],"min":[-1,-1,-1],"type":"VEC3"},{"bufferView":1,"byteOffset":96160,"componentType":5126,"count":4270,"max":[0.65625,1],"min":[0.3437499701976776,-7.450580596923828e-8],"type":"VEC2"},{"bufferView":0,"byteOffset":195312,"componentType":5125,"count":11040,"type":"SCALAR"},{"bufferView":2,"byteOffset":390960,"componentType":5126,"count":2114,"max":[0.06197229027748108,-6.361610412597656,4.656790733337402],"min":[-0.07076531648635864,-6.622828006744385,4.524055480957031],"type":"VEC3"},{"bufferView":2,"byteOffset":416328,"componentType":5126,"count":2114,"max":[1,0.000002520426733099157,1],"min":[-1,-1,-1],"type":"VEC3"},{"bufferView":1,"byteOffset":130320,"componentType":5126,"count":2114,"max":[0.5781250596046448,0.23125001788139343],"min":[0.421875,0.07499996572732925],"type":"VEC2"},{"bufferView":0,"byteOffset":239472,"componentType":5125,"count":4920,"type":"SCALAR"},{"bufferView":2,"byteOffset":441696,"componentType":5126,"count":2894,"max":[0.1964411735534668,2.799673080444336,4.791259288787842],"min":[-0.20523422956466675,-5.696423053741455,4.389584541320801],"type":"VEC3"},{"bufferView":2,"byteOffset":476424,"componentType":5126,"count":2894,"max":[1,0.8844482898712158,1],"min":[-1,-1,-1],"type":"VEC3"},{"bufferView":1,"byteOffset":147232,"componentType":5126,"count":2894,"max":[0.65625,1],"min":[0.3437499701976776,-7.450580596923828e-8],"type":"VEC2"},{"bufferView":0,"byteOffset":259152,"componentType":5125,"count":6720,"type":"SCALAR"},{"bufferView":2,"byteOffset":511152,"componentType":5126,"count":3716,"max":[0.1344587802886963,-5.651793956756592,4.729278087615967],"min":[-0.14325183629989624,-6.361611366271973,4.45156717300415],"type":"VEC3"},{"bufferView":2,"byteOffset":555744,"componentType":5126,"count":3716,"max":[1,1,1],"min":[-1,-1,-1],"type":"VEC3"},{"bufferView":1,"byteOffset":170384,"componentType":5126,"count":3716,"max":[0.6214176416397095,0.9639320969581604],"min":[0.37858229875564575,0.07499996572732925],"type":"VEC2"},{"bufferView":0,"byteOffset":286032,"componentType":5125,"count":7080,"type":"SCALAR"},{"bufferView":2,"byteOffset":600336,"componentType":5126,"count":651,"max":[0.13130474090576172,0.984531044960022,4.725037097930908],"min":[-0.14168781042099,-6.194988250732422,4.4520416259765625],"type":"VEC3"},{"bufferView":2,"byteOffset":608148,"componentType":5126,"count":651,"max":[1,1,1],"min":[-1,-1,-1],"type":"VEC3"},{"bufferView":1,"byteOffset":200112,"componentType":5126,"count":651,"max":[0.65625,1],"min":[0.3437499701976776,-7.450580596923828e-8],"type":"VEC2"},{"bufferView":0,"byteOffset":314352,"componentType":5125,"count":3354,"type":"SCALAR"},{"bufferView":2,"byteOffset":615960,"componentType":5126,"count":2696,"max":[0.43276092410087585,-4.544897079467773,5.027660369873047],"min":[-0.42638394236564636,-5.469008922576904,4.168515682220459],"type":"VEC3"},{"bufferView":2,"byteOffset":648312,"componentType":5126,"count":2696,"max":[0.9206820130348206,0.9259641170501709,0.9206827282905579],"min":[-0.9206820726394653,-0.9259640574455261,-0.9206821918487549],"type":"VEC3"},{"bufferView":1,"byteOffset":205320,"componentType":5126,"count":2696,"max":[0.625,0.6884448528289795],"min":[0.375,0.3125],"type":"VEC2"},{"bufferView":0,"byteOffset":327768,"componentType":5125,"count":8064,"type":"SCALAR"},{"bufferView":2,"byteOffset":680664,"componentType":5126,"count":5178,"max":[0.5,4.5,5.086500644683838],"min":[-0.5000001192092896,-5.505282402038574,4.08650016784668],"type":"VEC3"},{"bufferView":2,"byteOffset":742800,"componentType":5126,"count":5178,"max":[1,1,1],"min":[-1,-1,-1],"type":"VEC3"},{"bufferView":1,"byteOffset":226888,"componentType":5126,"count":5178,"max":[0.65625,0.9796895980834961],"min":[0.3437499701976776,-7.450580596923828e-8],"type":"VEC2"},{"bufferView":0,"byteOffset":360024,"componentType":5125,"count":12480,"type":"SCALAR"},{"bufferView":2,"byteOffset":804936,"componentType":5126,"count":207,"max":[1.0906845331192017,13.784446716308594,4.884276866912842],"min":[0.5185636281967163,12.836986541748047,4.312155723571777],"type":"VEC3"},{"bufferView":2,"byteOffset":807420,"componentType":5126,"count":207,"max":[1,1,1],"min":[-1,-1,-1],"type":"VEC3"},{"bufferView":1,"byteOffset":268312,"componentType":5126,"count":207,"max":[0.65625,1],"min":[0.3437499701976776,-7.450580596923828e-8],"type":"VEC2"},{"bufferView":0,"byteOffset":409944,"componentType":5125,"count":960,"type":"SCALAR"},{"bufferView":2,"byteOffset":809904,"componentType":5126,"count":4165,"max":[0.4361380338668823,12.624723434448242,5.221360206604004],"min":[-0.4361380338668823,8.596172332763672,4.1498236656188965],"type":"VEC3"},{"bufferView":2,"byteOffset":859884,"componentType":5126,"count":4165,"max":[1,1,0.9999971985816956],"min":[-1,-1,-1],"type":"VEC3"},{"bufferView":1,"byteOffset":269968,"componentType":5126,"count":4165,"max":[0.875,1],"min":[0.125,0],"type":"VEC2"},{"bufferView":0,"byteOffset":413784,"componentType":5125,"count":24432,"type":"SCALAR"},{"bufferView":2,"byteOffset":909864,"componentType":5126,"count":7232,"max":[1.4974122047424316,1.837668776512146,4.751129627227783],"min":[1.1773433685302734,1.4225051403045654,4.431692123413086],"type":"VEC3"},{"bufferView":2,"byteOffset":996648,"componentType":5126,"count":7232,"max":[0.9462100267410278,0.8929476737976074,1],"min":[-0.9462101459503174,-0.8929475545883179,-1],"type":"VEC3"},{"bufferView":1,"byteOffset":303288,"componentType":5126,"count":7232,"max":[0.65625,1],"min":[0.34375,1.4901161193847656e-8],"type":"VEC2"},{"bufferView":0,"byteOffset":511512,"componentType":5125,"count":21636,"type":"SCALAR"},{"bufferView":2,"byteOffset":1083432,"componentType":5126,"count":416,"max":[1.8261289596557617,1.1475765705108643,5.078449249267578],"min":[0.8879382610321045,-0.5976411700248718,4.1402587890625],"type":"VEC3"},{"bufferView":2,"byteOffset":1088424,"componentType":5126,"count":416,"max":[1,1,1],"min":[-1,-0.940625011920929,-1],"type":"VEC3"},{"bufferView":1,"byteOffset":361144,"componentType":5126,"count":416,"max":[0.65625,1],"min":[0.3437499701976776,0.3125],"type":"VEC2"},{"bufferView":0,"byteOffset":598056,"componentType":5125,"count":1800,"type":"SCALAR"},{"bufferView":2,"byteOffset":1093416,"componentType":5126,"count":4270,"max":[1.8596737384796143,5.709139823913574,5.143665790557861],"min":[0.7613012790679932,2.729978322982788,4.045292854309082],"type":"VEC3"},{"bufferView":2,"byteOffset":1144656,"componentType":5126,"count":4270,"max":[1,1,1],"min":[-1,-1,-1],"type":"VEC3"},{"bufferView":1,"byteOffset":364472,"componentType":5126,"count":4270,"max":[0.65625,1],"min":[0.3437499701976776,-7.450580596923828e-8],"type":"VEC2"},{"bufferView":0,"byteOffset":605256,"componentType":5125,"count":11040,"type":"SCALAR"},{"bufferView":2,"byteOffset":1195896,"componentType":5126,"count":2114,"max":[0.06197229027748108,-6.361610412597656,4.656790733337402],"min":[-0.07076531648635864,-6.622828006744385,4.524055480957031],"type":"VEC3"},{"bufferView":2,"byteOffset":1221264,"componentType":5126,"count":2114,"max":[1,0.000002520426733099157,1],"min":[-1,-1,-1],"type":"VEC3"},{"bufferView":1,"byteOffset":398632,"componentType":5126,"count":2114,"max":[0.5781250596046448,0.23125001788139343],"min":[0.421875,0.07499996572732925],"type":"VEC2"},{"bufferView":0,"byteOffset":649416,"componentType":5125,"count":4920,"type":"SCALAR"},{"bufferView":2,"byteOffset":1246632,"componentType":5126,"count":2894,"max":[0.1964411735534668,2.799673080444336,4.791259288787842],"min":[-0.20523422956466675,-5.696423053741455,4.389584541320801],"type":"VEC3"},{"bufferView":2,"byteOffset":1281360,"componentType":5126,"count":2894,"max":[1,0.8844482898712158,1],"min":[-1,-1,-1],"type":"VEC3"},{"bufferView":1,"byteOffset":415544,"componentType":5126,"count":2894,"max":[0.65625,1],"min":[0.3437499701976776,-7.450580596923828e-8],"type":"VEC2"},{"bufferView":0,"byteOffset":669096,"componentType":5125,"count":6720,"type":"SCALAR"},{"bufferView":2,"byteOffset":1316088,"componentType":5126,"count":3716,"max":[0.1344587802886963,-5.651793956756592,4.729278087615967],"min":[-0.14325183629989624,-6.361611366271973,4.45156717300415],"type":"VEC3"},{"bufferView":2,"byteOffset":1360680,"componentType":5126,"count":3716,"max":[1,1,1],"min":[-1,-1,-1],"type":"VEC3"},{"bufferView":1,"byteOffset":438696,"componentType":5126,"count":3716,"max":[0.6214176416397095,0.9639320969581604],"min":[0.37858229875564575,0.07499996572732925],"type":"VEC2"},{"bufferView":0,"byteOffset":695976,"componentType":5125,"count":7080,"type":"SCALAR"},{"bufferView":2,"byteOffset":1405272,"componentType":5126,"count":651,"max":[-0.6254123449325562,0.984531044960022,4.725037097930908],"min":[-0.8984048962593079,-6.194988250732422,4.4520416259765625],"type":"VEC3"},{"bufferView":2,"byteOffset":1413084,"componentType":5126,"count":651,"max":[1,1,1],"min":[-1,-1,-1],"type":"VEC3"},{"bufferView":1,"byteOffset":468424,"componentType":5126,"count":651,"max":[0.65625,1],"min":[0.3437499701976776,-7.450580596923828e-8],"type":"VEC2"},{"bufferView":0,"byteOffset":724296,"componentType":5125,"count":3354,"type":"SCALAR"},{"bufferView":2,"byteOffset":1420896,"componentType":5126,"count":2696,"max":[0.43276092410087585,-4.544897079467773,5.027660369873047],"min":[-0.42638394236564636,-5.469008922576904,4.168515682220459],"type":"VEC3"},{"bufferView":2,"byteOffset":1453248,"componentType":5126,"count":2696,"max":[0.9206820130348206,0.9259641170501709,0.9206827282905579],"min":[-0.9206820726394653,-0.9259640574455261,-0.9206821918487549],"type":"VEC3"},{"bufferView":1,"byteOffset":473632,"componentType":5126,"count":2696,"max":[0.625,0.6884448528289795],"min":[0.375,0.3125],"type":"VEC2"},{"bufferView":0,"byteOffset":737712,"componentType":5125,"count":8064,"type":"SCALAR"},{"bufferView":2,"byteOffset":1485600,"componentType":5126,"count":5178,"max":[0.5,4.5,5.086500644683838],"min":[-0.5000001192092896,-5.505282402038574,4.08650016784668],"type":"VEC3"},{"bufferView":2,"byteOffset":1547736,"componentType":5126,"count":5178,"max":[1,1,1],"min":[-1,-1,-1],"type":"VEC3"},{"bufferView":1,"byteOffset":495200,"componentType":5126,"count":5178,"max":[0.65625,0.9796895980834961],"min":[0.3437499701976776,-7.450580596923828e-8],"type":"VEC2"},{"bufferView":0,"byteOffset":769968,"componentType":5125,"count":12480,"type":"SCALAR"}],"asset":{"extras":{"author":"xonibunnyx (https://sketchfab.com/xonibunnyx)","license":"CC-BY-4.0 (http://creativecommons.org/licenses/by/4.0/)","source":"https://sketchfab.com/3d-models/clickable-ink-pen-d08fbfb617e9477ca21574de23bb03ba","title":"Clickable Ink Pen"},"generator":"Sketchfab-12.68.0","version":"2.0"},"bufferViews":[{"buffer":0,"byteLength":819888,"name":"floatBufferViews","target":34963},{"buffer":0,"byteLength":536624,"byteOffset":819888,"byteStride":8,"name":"floatBufferViews","target":34962},{"buffer":0,"byteLength":1609872,"byteOffset":1356512,"byteStride":12,"name":"floatBufferViews","target":34962}],"buffers":[{"byteLength":2966384,"uri":"data:application/octet-stream;base64,"}],"materials":[{"doubleSided":true,"name":"BlackSolidPlastic_ai","pbrMetallicRoughness":{"baseColorFactor":[0.00804895271893699,0.026936021705756888,0.061563921154370045,1],"metallicFactor":0,"roughnessFactor":0.14733373912600542}},{"doubleSided":true,"name":"metal_pen_ai","pbrMetallicRoughness":{"baseColorFactor":[0.18347520598078862,0.18173751004332242,0.18173751004332242,1],"roughnessFactor":0}},{"doubleSided":true,"name":"rubber_grip_ai","pbrMetallicRoughness":{"baseColorFactor":[0.003518117081782892,0.027277530624983552,0.055790711926786696,1],"metallicFactor":0}},{"doubleSided":true,"name":"innerplastic_ai","pbrMetallicRoughness":{"baseColorFactor":[0.001780874889391236,0.0017099550929110543,0.0017099550929110543,1],"metallicFactor":0,"roughnessFactor":0.6}},{"doubleSided":true,"name":"solid_plastic_ai","pbrMetallicRoughness":{"metallicFactor":0}},{"doubleSided":true,"name":"ink_ai","pbrMetallicRoughness":{"baseColorFactor":[0,0,0,1],"metallicFactor":0,"roughnessFactor":0}},{"alphaMode":"BLEND","doubleSided":true,"name":"plastic_pen_ai","pbrMetallicRoughness":{"baseColorFactor":[0,0,0,0.6935761979453934],"metallicFactor":0,"roughnessFactor":0.6}}],"meshes":[{"name":"pCylinder3_BlackSolidPlastic_ai_0","primitives":[{"attributes":{"NORMAL":1,"POSITION":0,"TEXCOORD_0":2},"indices":3,"material":0,"mode":4}]},{"name":"pCube1_BlackSolidPlastic_ai_0","primitives":[{"attributes":{"NORMAL":5,"POSITION":4,"TEXCOORD_0":6},"indices":7,"material":0,"mode":4}]},{"name":"springtype2_01_metal_pen_ai_0","primitives":[{"attributes":{"NORMAL":9,"POSITION":8,"TEXCOORD_0":10},"indices":11,"material":1,"mode":4}]},{"name":"cap_toInkpart_01_metal_pen_ai_0","primitives":[{"attributes":{"NORMAL":13,"POSITION":12,"TEXCOORD_0":14},"indices":15,"material":1,"mode":4}]},{"name":"grippy_01_rubber_grip_ai_0","primitives":[{"attributes":{"NORMAL":17,"POSITION":16,"TEXCOORD_0":18},"indices":19,"material":2,"mode":4}]},{"name":"Ink_piece_metal_pen_ai_0","primitives":[{"attributes":{"NORMAL":21,"POSITION":20,"TEXCOORD_0":22},"indices":23,"material":1,"mode":4}]},{"name":"Ink_piece_innerplastic_ai_0","primitives":[{"attributes":{"NORMAL":25,"POSITION":24,"TEXCOORD_0":26},"indices":27,"material":3,"mode":4}]},{"name":"Ink_piece_solid_plastic_ai_0","primitives":[{"attributes":{"NORMAL":29,"POSITION":28,"TEXCOORD_0":30},"indices":31,"material":4,"mode":4}]},{"name":"ink_01_ink_ai_0","primitives":[{"attributes":{"NORMAL":33,"POSITION":32,"TEXCOORD_0":34},"indices":35,"material":5,"mode":4}]},{"name":"screwOn_piece_01_plastic_pen_ai_0","primitives":[{"attributes":{"NORMAL":37,"POSITION":36,"TEXCOORD_0":38},"indices":39,"material":6,"mode":4}]},{"name":"mainPenPiece_01_plastic_pen_ai_0","primitives":[{"attributes":{"NORMAL":41,"POSITION":40,"TEXCOORD_0":42},"indices":43,"material":6,"mode":4}]},{"name":"pCylinder3_BlackSolidPlastic_ai_0","primitives":[{"attributes":{"NORMAL":45,"POSITION":44,"TEXCOORD_0":46},"indices":47,"material":0,"mode":4}]},{"name":"pCube1_BlackSolidPlastic_ai_0","primitives":[{"attributes":{"NORMAL":49,"POSITION":48,"TEXCOORD_0":50},"indices":51,"material":0,"mode":4}]},{"name":"springtype2_01_metal_pen_ai_0","primitives":[{"attributes":{"NORMAL":53,"POSITION":52,"TEXCOORD_0":54},"indices":55,"material":1,"mode":4}]},{"name":"cap_toInkpart_01_metal_pen_ai_0","primitives":[{"attributes":{"NORMAL":57,"POSITION":56,"TEXCOORD_0":58},"indices":59,"material":1,"mode":4}]},{"name":"grippy_01_rubber_grip_ai_0","primitives":[{"attributes":{"NORMAL":61,"POSITION":60,"TEXCOORD_0":62},"indices":63,"material":2,"mode":4}]},{"name":"Ink_piece_metal_pen_ai_0","primitives":[{"attributes":{"NORMAL":65,"POSITION":64,"TEXCOORD_0":66},"indices":67,"material":1,"mode":4}]},{"name":"Ink_piece_innerplastic_ai_0","primitives":[{"attributes":{"NORMAL":69,"POSITION":68,"TEXCOORD_0":70},"indices":71,"material":3,"mode":4}]},{"name":"Ink_piece_solid_plastic_ai_0","primitives":[{"attributes":{"NORMAL":73,"POSITION":72,"TEXCOORD_0":74},"indices":75,"material":4,"mode":4}]},{"name":"ink_01_ink_ai_0","primitives":[{"attributes":{"NORMAL":77,"POSITION":76,"TEXCOORD_0":78},"indices":79,"material":5,"mode":4}]},{"name":"screwOn_piece_01_plastic_pen_ai_0","primitives":[{"attributes":{"NORMAL":81,"POSITION":80,"TEXCOORD_0":82},"indices":83,"material":6,"mode":4}]},{"name":"mainPenPiece_01_plastic_pen_ai_0","primitives":[{"attributes":{"NORMAL":85,"POSITION":84,"TEXCOORD_0":86},"indices":87,"material":6,"mode":4}]}],"nodes":[{"children":[1],"matrix":[1,0,0,0,0,2.220446049250313e-16,-1,0,0,1,2.220446049250313e-16,0,0,0,0,1],"name":"Sketchfab_model"},{"children":[2],"matrix":[1,0,0,0,0,0,1,0,0,-1,0,0,0,0,0,1],"name":"a68cc09e063143dabed7e7f96a06fd23.fbx"},{"children":[3,27],"name":"RootNode"},{"children":[4,9,11,13,15,22],"matrix":[1,0,0,0,0,2.220446049250313e-16,-1,0,0,1,2.220446049250313e-16,0,-5.218997955322266,-4.134581565856934,7.883337497711182,1],"name":"EntirePen_01"},{"children":[5,7],"name":"Cap_piece_01"},{"children":[6],"name":"pCylinder3"},{"mesh":0,"name":"pCylinder3_BlackSolidPlastic_ai_0"},{"children":[8],"name":"pCube1"},{"mesh":1,"name":"pCube1_BlackSolidPlastic_ai_0"},{"children":[10],"name":"springtype2_01"},{"mesh":2,"name":"springtype2_01_metal_pen_ai_0"},{"children":[12],"name":"cap_toInkpart_01"},{"mesh":3,"name":"cap_toInkpart_01_metal_pen_ai_0"},{"children":[14],"name":"grippy_01"},{"mesh":4,"name":"grippy_01_rubber_grip_ai_0"},{"children":[16,20],"matrix":[1,0,0,0,0,1,0,0,0,0,1,0,0,7.166039943695068,-8.881784197001252e-16,1],"name":"Ink_pieceFilled_01"},{"children":[17,18,19],"name":"Ink_piece"},{"mesh":5,"name":"Ink_piece_metal_pen_ai_0"},{"mesh":6,"name":"Ink_piece_innerplastic_ai_0"},{"mesh":7,"name":"Ink_piece_solid_plastic_ai_0"},{"children":[21],"name":"ink_01"},{"mesh":8,"name":"ink_01_ink_ai_0"},{"children":[23,25],"matrix":[1,0,0,0,0,1,0,0,0,0,1,0,0,7.166039943695068,-8.881784197001252e-16,1],"name":"main_pen_shell"},{"children":[24],"name":"screwOn_piece_01"},{"mesh":9,"name":"screwOn_piece_01_plastic_pen_ai_0"},{"children":[26],"name":"mainPenPiece_01"},{"mesh":10,"name":"mainPenPiece_01_plastic_pen_ai_0"},{"children":[28,33,35,37,39,46],"matrix":[1,0,0,0,0,2.220446049250313e-16,-1,0,0,1,2.220446049250313e-16,0,3.1573433876037598,-4.134581565856934,7.883337497711182,1],"name":"EntirePen_02"},{"children":[29,31],"matrix":[1,0,0,0,0,1,0,0,0,0,1,0,-1.598319411277771,8.881784197001252e-16,-8.881784197001252e-16,1],"name":"Cap_piece_01"},{"children":[30],"matrix":[1,0,0,0,0,1,0,0,0,0,1,0,0.6544530987739563,0.5882853269577026,0,1],"name":"pCylinder3"},{"mesh":11,"name":"pCylinder3_BlackSolidPlastic_ai_0"},{"children":[32],"matrix":[1,0,0,0,0,1,0,0,0,0,1,0,0.3641785681247711,0.18593129515647888,-8.881784197001252e-16,1],"name":"pCube1"},{"mesh":12,"name":"pCube1_BlackSolidPlastic_ai_0"},{"children":[34],"matrix":[1,0,0,0,0,2.1138498783111572,0,0,0,0,1,0,8.881784197001252e-16,-1.4521450996398926,-1.7763568394002505e-15,1],"name":"springtype2_01"},{"mesh":13,"name":"springtype2_01_metal_pen_ai_0"},{"children":[36],"name":"cap_toInkpart_01"},{"mesh":14,"name":"cap_toInkpart_01_metal_pen_ai_0"},{"children":[38],"name":"grippy_01"},{"mesh":15,"name":"grippy_01_rubber_grip_ai_0"},{"children":[40,44],"matrix":[1,0,0,0,0,1,0,0,0,0,1,0,0,7.166039943695068,-8.881784197001252e-16,1],"name":"Ink_pieceFilled_01"},{"children":[41,42,43],"name":"Ink_piece"},{"mesh":16,"name":"Ink_piece_metal_pen_ai_0"},{"mesh":17,"name":"Ink_piece_innerplastic_ai_0"},{"mesh":18,"name":"Ink_piece_solid_plastic_ai_0"},{"children":[45],"name":"ink_01"},{"mesh":19,"name":"ink_01_ink_ai_0"},{"children":[47,49],"matrix":[1,0,0,0,0,1,0,0,0,0,1,0,-2.673532247543335,5.808726787567139,-4.440892098500626e-15,1],"name":"main_pen_shell"},{"children":[48],"name":"screwOn_piece_01"},{"mesh":20,"name":"screwOn_piece_01_plastic_pen_ai_0"},{"children":[50],"name":"mainPenPiece_01"},{"mesh":21,"name":"mainPenPiece_01_plastic_pen_ai_0"}],"scene":0,"scenes":[{"name":"Sketchfab_Scene","nodes":[0]}]}